<?xml version="1.0" encoding="UTF-8"?> <svg xmlns="http://www.w3.org/2000/svg" width="203" height="76" viewBox="0 0 203 76" fill="none"><path d="M104.831 8.11164C107.302 8.11164 109.356 8.8931 110.995 10.456C112.633 12.0189 113.453 13.9726 113.453 16.317C113.453 18.6866 112.633 20.6402 110.995 22.1779C109.356 23.6904 107.302 24.4467 104.831 24.4467H96.5503V33.446H92.8825V8.11164H104.831ZM96.5503 20.9301H104.718C106.205 20.9301 107.415 20.5016 108.348 19.6445C109.281 18.7874 109.747 17.6782 109.747 16.317C109.747 14.9809 109.268 13.8844 108.31 13.0273C107.377 12.145 106.18 11.7038 104.718 11.7038H96.5503V20.9301ZM118.251 33.4082V8.11164H128.422C132.052 8.11164 135.052 9.30904 137.422 11.7038C139.791 14.0734 140.976 17.0732 140.976 20.7032V20.8167C140.976 24.4467 139.791 27.4591 137.422 29.8539C135.052 32.2234 132.052 33.4082 128.422 33.4082H118.251ZM128.385 11.7038H121.919V29.816H128.385C130.981 29.816 133.111 28.9842 134.775 27.3204C136.439 25.6315 137.271 23.4635 137.271 20.8167V20.7032C137.271 18.0563 136.439 15.901 134.775 14.2373C133.111 12.5483 130.981 11.7038 128.385 11.7038ZM158.079 8.11164C160.549 8.11164 162.604 8.8931 164.242 10.456C165.881 12.0189 166.7 13.9726 166.7 16.317C166.7 18.6866 165.881 20.6402 164.242 22.1779C162.604 23.6904 160.549 24.4467 158.079 24.4467H149.798V33.446H146.13V8.11164H158.079ZM149.798 20.9301H157.966C159.453 20.9301 160.663 20.5016 161.596 19.6445C162.528 18.7874 162.995 17.6782 162.995 16.317C162.995 14.9809 162.516 13.8844 161.558 13.0273C160.625 12.145 159.428 11.7038 157.966 11.7038H149.798V20.9301Z" fill="#002227"></path><path d="M100.401 40.6066H106.02V61.065C106.02 62.9908 105.493 64.4813 104.437 65.5365C103.409 66.5918 101.931 67.1194 100.005 67.1194H90.4688V61.6586H98.5413C99.7812 61.6586 100.401 61.0518 100.401 59.8383V40.6066ZM109.495 58.018V47.4129H114.838V57.9389C114.838 59.2579 115.22 60.3527 115.985 61.2233C116.75 62.0938 117.805 62.5291 119.151 62.5291C120.496 62.5291 121.538 62.0938 122.277 61.2233C123.042 60.3527 123.425 59.2579 123.425 57.9389V47.4129H128.767V58.018C128.767 60.999 127.896 63.3601 126.155 65.1013C124.44 66.8424 122.105 67.713 119.151 67.713C116.196 67.713 113.848 66.8424 112.107 65.1013C110.366 63.3337 109.495 60.9726 109.495 58.018ZM143.858 46.8589C146.285 46.8589 148.197 47.6371 149.595 49.1936C150.994 50.7501 151.693 52.9265 151.693 55.7229V67.1194H146.35V56.5143C146.35 55.1425 145.968 54.0609 145.203 53.2694C144.438 52.478 143.475 52.0823 142.314 52.0823C141.074 52.0823 140.019 52.5308 139.149 53.4277C138.278 54.2983 137.843 55.4591 137.843 56.91V67.1194H132.501V47.4129H137.684V49.7872H137.882C139.28 47.835 141.272 46.8589 143.858 46.8589ZM155.455 38.6281H160.797V44.8803H155.455V38.6281ZM155.455 47.4129H160.797V67.1194H155.455V47.4129ZM181.941 64.7451C179.989 66.7237 177.43 67.713 174.264 67.713C171.099 67.713 168.54 66.7237 166.587 64.7451C164.635 62.7665 163.659 60.2736 163.659 57.2661C163.659 54.2851 164.635 51.8053 166.587 49.8267C168.54 47.8218 171.099 46.8193 174.264 46.8193C177.43 46.8193 179.989 47.8218 181.941 49.8267C183.893 51.8053 184.869 54.2851 184.869 57.2661C184.869 60.2736 183.893 62.7665 181.941 64.7451ZM174.264 62.5291C175.794 62.5291 177.047 62.0279 178.024 61.0254C179.026 59.9966 179.527 58.7435 179.527 57.2661C179.527 55.7624 179.039 54.5093 178.063 53.5069C177.087 52.478 175.821 51.9636 174.264 51.9636C172.708 51.9636 171.442 52.478 170.465 53.5069C169.489 54.5093 169.001 55.7624 169.001 57.2661C169.001 58.7698 169.489 60.0229 170.465 61.0254C171.442 62.0279 172.708 62.5291 174.264 62.5291ZM197.58 47.4129H201.734V52.755H197.303C196.01 52.755 194.955 53.1771 194.137 54.0213C193.319 54.8655 192.91 55.9603 192.91 57.3057V67.1194H187.568V47.4129H192.633V50.4995H192.831C193.596 48.4418 195.179 47.4129 197.58 47.4129Z" fill="#04C9D6"></path><circle cx="38" cy="38" r="38" fill="#00E0EF"></circle><rect x="4.02612" y="23.9707" width="62.3382" height="30.5702" rx="15.2851" fill="#002227"></rect><path d="M43.4823 39.7422H54.5776" stroke="#00E0EF" stroke-width="3.40916" stroke-linecap="round"></path><path d="M16.2993 34.9382L26.0307 39.742" stroke="#00E0EF" stroke-width="3.40916" stroke-linecap="round"></path><path d="M26.0317 39.7422L16.3003 44.5459" stroke="#00E0EF" stroke-width="3.40916" stroke-linecap="round"></path></svg> 